<svg width="63" height="64" viewBox="0 0 63 64" fill="none" xmlns="http://www.w3.org/2000/svg">
<path d="M44.9204 32.4807C44.9204 33.5308 45.7716 34.3821 46.8218 34.3821H51.1462C53.3476 34.3821 55.5224 34.8867 57.4878 35.8784C58.0737 36.174 58.7468 36.3223 59.4583 36.2748C61.3433 36.1489 62.8715 34.6158 62.9919 32.7304C63.1331 30.5169 61.3801 28.678 59.197 28.678C58.6057 28.678 58.0459 28.813 57.547 29.0539C55.5443 30.0208 53.3693 30.5794 51.1454 30.5794H46.8218C45.7718 30.5793 44.9204 31.4306 44.9204 32.4807Z" fill="#FB4C47"/>
<path d="M19.154 44.8236C18.5401 44.2098 17.5448 44.2098 16.9309 44.8236L14.4028 47.3514C13.1159 48.6382 11.5495 49.6144 9.82084 50.1837C9.3054 50.3533 8.82528 50.6601 8.43719 51.1037C7.40878 52.2791 7.41161 54.0686 8.44347 55.2411C9.65485 56.6176 11.7547 56.6678 13.031 55.3917C13.3766 55.0461 13.6249 54.64 13.7759 54.2075C14.3814 52.4717 15.3264 50.8739 16.6265 49.574L19.1541 47.0467C19.7678 46.4326 19.7678 45.4374 19.154 44.8236Z" fill="#FB4C47"/>
<path d="M41.9569 22.0252C42.5993 22.6675 43.6408 22.6675 44.2832 22.0252L46.9287 19.3801C48.2754 18.0336 49.9145 17.0121 51.7234 16.4163C52.2627 16.2387 52.7652 15.9178 53.1713 15.4535C54.2474 14.2234 54.2445 12.3509 53.1646 11.1241C51.897 9.68374 49.6996 9.63121 48.3641 10.9665C48.0024 11.3282 47.7426 11.7531 47.5847 12.2056C46.951 14.022 45.9622 15.694 44.6018 17.0544L41.9568 19.699C41.3145 20.3415 41.3145 21.3828 41.9569 22.0252Z" fill="#FB4C47"/>
<path d="M31.4989 45.8987C30.4488 45.8987 29.5975 46.7498 29.5975 47.7999V52.1236C29.5975 54.3248 29.0929 56.4993 28.1012 58.4645C27.8055 59.0504 27.6573 59.7234 27.7048 60.4347C27.8307 62.3195 29.3638 63.8476 31.2492 63.9679C33.4627 64.1091 35.3016 62.3563 35.3016 60.1735C35.3016 59.5822 35.1666 59.0226 34.9257 58.5237C33.9588 56.5212 33.4002 54.3466 33.4002 52.1229V47.7999C33.4003 46.7499 32.549 45.8987 31.4989 45.8987Z" fill="#FFA2A1"/>
<path d="M34.9285 58.5238C33.9616 56.5214 33.403 54.3467 33.403 52.123V47.7999C33.403 46.7499 32.5517 45.8987 31.5015 45.8987C30.4513 45.8987 29.6001 46.7498 29.6001 47.7999V52.123C29.6001 54.3467 30.1587 56.5213 31.1256 58.5238C31.3665 59.0227 31.5015 59.5824 31.5015 60.1737C31.5015 61.5799 30.7377 62.8068 29.6028 63.4646C30.0951 63.7509 30.6558 63.93 31.252 63.9681C33.4655 64.1093 35.3044 62.3565 35.3044 60.1737C35.3044 59.5824 35.1694 59.0227 34.9285 58.5238Z" fill="#FB4C47"/>
<path d="M17.3091 24.6287C20.7395 24.6287 23.5203 21.8482 23.5203 18.4182C23.5203 14.9883 20.7395 12.2078 17.3091 12.2078C13.8788 12.2078 11.0979 14.9883 11.0979 18.4182C11.0979 21.8482 13.8788 24.6287 17.3091 24.6287Z" fill="#FF807E"/>
<path d="M17.3082 12.2078C16.6448 12.2078 16.0062 12.3128 15.4067 12.5054C17.9068 13.3085 19.7165 15.6516 19.7165 18.4182C19.7165 21.1848 17.9068 23.5279 15.4067 24.3311C16.0061 24.5236 16.6447 24.6287 17.3082 24.6287C20.7385 24.6287 23.5194 21.8482 23.5194 18.4182C23.5194 14.9883 20.7384 12.2078 17.3082 12.2078Z" fill="#FB4C47"/>
<path d="M31.5002 52.7591C42.7014 52.7591 51.7817 43.6799 51.7817 32.4802C51.7817 21.2804 42.7014 12.2012 31.5002 12.2012C20.2991 12.2012 11.2188 21.2804 11.2188 32.4802C11.2188 43.6799 20.2991 52.7591 31.5002 52.7591Z" fill="#FFBFBE"/>
<path d="M31.5015 12.2012C30.8602 12.2012 30.2263 12.2323 29.6001 12.2906C39.9095 13.2493 47.9803 21.9217 47.9803 32.4802C47.9803 43.0386 39.9096 51.7111 29.6002 52.6697C30.2263 52.7279 30.8603 52.7592 31.5016 52.7592C42.7028 52.7592 51.7831 43.68 51.7831 32.4802C51.7831 21.2803 42.7027 12.2012 31.5015 12.2012Z" fill="#FFA2A2"/>
<path d="M39.1036 29.6676C41.3788 29.6676 43.2233 27.8233 43.2233 25.5484C43.2233 23.2734 41.3788 21.4292 39.1036 21.4292C36.8283 21.4292 34.9839 23.2734 34.9839 25.5484C34.9839 27.8233 36.8283 29.6676 39.1036 29.6676Z" fill="#FFA2A1"/>
<path d="M39.1065 21.4292C38.4204 21.4292 37.774 21.5979 37.2051 21.8945C38.523 22.5816 39.4234 23.9594 39.4234 25.5484C39.4234 27.1373 38.523 28.5153 37.2051 29.2023C37.774 29.4989 38.4204 29.6676 39.1065 29.6676C41.3818 29.6676 43.2262 27.8233 43.2262 25.5484C43.2262 23.2734 41.3818 21.4292 39.1065 21.4292Z" fill="#FF807E"/>
<path d="M24.2482 43.1909C25.7883 43.1909 27.0369 41.9424 27.0369 40.4022C27.0369 38.8621 25.7883 37.6135 24.2482 37.6135C22.708 37.6135 21.4595 38.8621 21.4595 40.4022C21.4595 41.9424 22.708 43.1909 24.2482 43.1909Z" fill="#FF807E"/>
<path d="M45.2971 51.3232C47.3973 51.3232 49.0998 49.6207 49.0998 47.5205C49.0998 45.4203 47.3973 43.7178 45.2971 43.7178C43.1969 43.7178 41.4944 45.4203 41.4944 47.5205C41.4944 49.6207 43.1969 51.3232 45.2971 51.3232Z" fill="#FB4C47"/>
<path d="M45.2977 43.718C44.6048 43.718 43.9557 43.9043 43.3962 44.228C44.5326 44.8856 45.2977 46.1135 45.2977 47.5209C45.2977 48.9283 44.5326 50.156 43.3962 50.8137C43.9557 51.1374 44.6048 51.3237 45.2977 51.3237C47.3979 51.3237 49.1004 49.6211 49.1004 47.521C49.1004 45.4208 47.3979 43.718 45.2977 43.718Z" fill="#FF807E"/>
<path d="M18.0794 32.4807C18.0794 33.5308 17.2282 34.3821 16.178 34.3821H11.8537C9.65229 34.3821 7.47746 34.8867 5.51205 35.8784C4.92611 36.174 4.25305 36.3223 3.5416 36.2748C1.65654 36.1489 0.128316 34.6158 0.00797766 32.7304C-0.133279 30.5169 1.61975 28.678 3.80283 28.678C4.39418 28.678 4.95392 28.813 5.45287 29.0539C7.45556 30.0208 9.63051 30.5794 11.8544 30.5794H16.1781C17.2281 30.5793 18.0794 31.4306 18.0794 32.4807Z" fill="#FB4C47"/>
<path d="M31.4988 19.0616C32.5488 19.0616 33.4002 18.2105 33.4002 17.1604V12.8366C33.4002 10.6355 33.9048 8.46091 34.8964 6.49575C35.1921 5.90988 35.3404 5.2369 35.2929 4.52554C35.167 2.64071 33.6339 1.11268 31.7484 0.992352C29.535 0.851113 27.696 2.60393 27.696 4.78673C27.696 5.37802 27.831 5.93768 28.0719 6.43657C29.0388 8.43901 29.5975 10.6137 29.5975 12.8373V17.1605C29.5973 18.2103 30.4487 19.0616 31.4988 19.0616Z" fill="#FFA2A1"/>
<path d="M35.2938 4.52553C35.1679 2.6407 33.6348 1.11267 31.7494 0.992342C30.9619 0.942022 30.2225 1.13247 29.5957 1.49578C30.6605 2.11499 31.4048 3.23666 31.491 4.52553C31.5385 5.23689 31.3902 5.90986 31.0945 6.49573C30.1029 8.4609 29.5983 10.6355 29.5983 12.8366V17.1604C29.5983 18.2103 30.4495 19.0616 31.4997 19.0616C32.5499 19.0616 33.4011 18.2104 33.4011 17.1604V12.8366C33.4011 10.6355 33.9057 8.4609 34.8974 6.49573C35.193 5.90986 35.3414 5.23689 35.2938 4.52553Z" fill="#FB4C47"/>
<path d="M59.2006 28.6802C58.6096 28.6802 58.0502 28.815 57.5515 29.0558C57.4633 29.0984 57.3742 29.1393 57.2854 29.1802C58.4964 29.8735 59.2894 31.2138 59.1926 32.7302C59.1098 34.0271 58.3604 35.157 57.2871 35.7767C57.3555 35.8098 57.4243 35.8422 57.4922 35.8764C58.0779 36.1718 58.7505 36.3201 59.4616 36.2726C61.3455 36.1467 62.8729 34.6145 62.9931 32.7302C63.1344 30.518 61.3823 28.6802 59.2006 28.6802Z" fill="#FF807E"/>
</svg>
